<svg width="204" height="42" viewBox="0 0 204 42" fill="none" xmlns="http://www.w3.org/2000/svg">
<path d="M78.2421 34.8676C74.7744 34.8676 72.0338 33.916 70.0203 32.013C68.0068 30.1099 67 27.4093 67 23.911V8.67265H73.7117V23.3233C73.7117 25.1144 74.1032 26.4857 74.8863 27.4373C75.6973 28.3888 76.8159 28.8646 78.2421 28.8646C79.6404 28.8646 80.7311 28.3888 81.5141 27.4373C82.3251 26.4857 82.7306 25.1144 82.7306 23.3233V8.67265H89.4423V23.953C89.4423 27.4233 88.4355 30.1099 86.422 32.013C84.4085 33.916 81.6819 34.8676 78.2421 34.8676Z" fill="white"/>
<path d="M92.4324 34.4478V15.5572H99.0183V17.1944C100.249 15.8231 101.941 15.1374 104.094 15.1374C106.163 15.1374 107.785 15.7671 108.96 17.0265C110.163 18.2579 110.764 19.937 110.764 22.064V34.4478H104.22V23.6592C104.22 22.8476 104.01 22.2039 103.591 21.7281C103.171 21.2244 102.556 20.9725 101.745 20.9725C101.074 20.9725 100.486 21.1544 99.9831 21.5182C99.5077 21.882 99.1861 22.3858 99.0183 23.0295V34.4478H92.4324Z" fill="white"/>
<path d="M120.351 15.5572V34.4478H113.765V15.5572H120.351ZM120.813 10.4358C120.813 11.4713 120.449 12.3248 119.722 12.9965C118.995 13.6402 118.114 13.962 117.079 13.962C116.045 13.962 115.164 13.6402 114.437 12.9965C113.709 12.3248 113.346 11.4713 113.346 10.4358C113.346 9.3723 113.709 8.51873 114.437 7.87505C115.164 7.20339 116.045 6.86755 117.079 6.86755C118.114 6.86755 118.995 7.20339 119.722 7.87505C120.449 8.51873 120.813 9.3723 120.813 10.4358Z" fill="white"/>
<path d="M123.673 34.4478V8.67265H130.427V28.6127H141.962V34.4478H123.673Z" fill="white"/>
<path d="M155.756 27.8571H161.838C161.503 30.04 160.552 31.7611 158.986 33.0205C157.42 34.2519 155.42 34.8676 152.987 34.8676C150.107 34.8676 147.785 33.958 146.024 32.1389C144.262 30.3198 143.381 27.941 143.381 25.0025C143.381 22.0919 144.276 19.7271 146.066 17.908C147.855 16.061 150.121 15.1374 152.861 15.1374C155.714 15.1374 157.937 16.005 159.531 17.7401C161.125 19.4752 161.922 21.7701 161.922 24.6247V26.2619H149.715C149.939 28.5847 151.029 29.7461 152.987 29.7461C154.469 29.7461 155.392 29.1164 155.756 27.8571ZM152.861 20.2589C151.267 20.2589 150.26 21.1684 149.841 22.9875H155.546C155.49 22.1759 155.224 21.5182 154.749 21.0145C154.273 20.5107 153.644 20.2589 152.861 20.2589Z" fill="white"/>
<path d="M164 34.4478V15.5572H170.586V17.1944C171.816 15.8231 173.508 15.1374 175.662 15.1374C177.731 15.1374 179.353 15.7671 180.528 17.0265C181.73 18.2579 182.331 19.937 182.331 22.064V34.4478H175.788V23.6592C175.788 22.8476 175.578 22.2039 175.158 21.7281C174.739 21.2244 174.124 20.9725 173.313 20.9725C172.641 20.9725 172.054 21.1544 171.551 21.5182C171.075 21.882 170.754 22.3858 170.586 23.0295V34.4478H164Z" fill="white"/>
<path d="M197.414 34.4478V32.9365C196.939 33.4683 196.268 33.93 195.401 34.3218C194.562 34.6856 193.681 34.8676 192.758 34.8676C190.129 34.8676 188.06 33.944 186.55 32.0969C185.067 30.2219 184.326 27.8571 184.326 25.0025C184.326 22.1479 185.067 19.7971 186.55 17.95C188.06 16.075 190.129 15.1374 192.758 15.1374C193.681 15.1374 194.562 15.3333 195.401 15.7251C196.268 16.0889 196.939 16.5367 197.414 17.0685V7.16141H204V34.4478H197.414ZM197.414 27.4792V22.4837C197.162 21.98 196.771 21.5602 196.24 21.2244C195.708 20.8885 195.135 20.7206 194.52 20.7206C193.401 20.7206 192.52 21.1264 191.877 21.938C191.234 22.7216 190.912 23.7431 190.912 25.0025C190.912 26.2339 191.234 27.2554 191.877 28.067C192.52 28.8506 193.401 29.2424 194.52 29.2424C195.89 29.2424 196.855 28.6547 197.414 27.4792Z" fill="white"/>
<g clip-path="url(#clip0)">
<path fill-rule="evenodd" clip-rule="evenodd" d="M42.5561 11.775L42.5559 11.7767L45.5259 11.7927C45.8638 11.7676 46.2046 11.7691 46.5451 11.7979L53.7992 11.8368C54.9025 11.9005 55.7771 12.8227 55.7771 13.9513C55.7771 14.4847 55.5817 14.972 55.2594 15.344L51.7295 21.5093C51.7016 21.5613 51.673 21.6131 51.6435 21.6646L42.9091 36.9608C41.726 39.0328 39.5983 40.2097 37.3935 40.2566L37.3937 40.2581L37.2911 40.258C37.2343 40.2583 37.1774 40.2578 37.1206 40.2566L11.2745 40.1233H8.39424L8.39439 40.0717C10.5825 39.765 12.4235 38.3604 13.3557 36.4257L13.3765 36.4262L26.039 14.16C26.7498 12.7448 28.2031 11.775 29.8804 11.775L29.7636 11.7775L29.7675 11.775H42.5561Z" fill="#2BBDF7"/>
<path fill-rule="evenodd" clip-rule="evenodd" d="M22.3239 0.848971L45.1375 0.849338C46.2404 0.913152 47.1149 1.83525 47.1149 2.96386C47.1149 3.41626 46.9744 3.83547 46.7351 4.17932L40.5782 14.9866L34.0331 26.4724L34.0368 26.4713H34.0901L31.997 30.1398C30.2325 33.2298 31.2234 37.1637 34.1988 39.0332L34.3835 39.1451C35.2217 39.6344 36.1226 39.9141 37.0271 40.0004L37.0273 40.1546L26.2415 40.1544L26.2371 40.164H7.53266C6.47061 40.1446 5.3922 39.8726 4.39445 39.3134C1.18559 37.515 0.0262213 33.4269 1.80492 30.1825L15.9995 4.29084C17.3004 1.9179 19.8127 0.653438 22.3239 0.848971Z" fill="#2B6DEF"/>
<path fill-rule="evenodd" clip-rule="evenodd" d="M29.8061 11.7748L42.3689 11.7878L40.5516 14.9785L34.0066 26.4643L34.0103 26.4632H34.0636L31.9705 30.1316C30.206 33.2216 31.1969 37.1556 34.1723 39.0251L34.357 39.1369C35.1951 39.6262 36.0961 39.906 37.0005 39.9922L37.0008 40.1465L26.2149 40.1463L26.2106 40.1559L8.3466 40.1564C10.3271 39.9487 12.1863 38.8463 13.3067 37.0235L13.4327 36.81L26.6452 13.4585C27.3946 12.4792 28.5477 11.8318 29.8524 11.7715L29.8061 11.7748Z" fill="white"/>
<path fill-rule="evenodd" clip-rule="evenodd" d="M29.8061 11.7748L42.3689 11.7878L40.5516 14.9785L34.0066 26.4643L34.0103 26.4632H34.0636L31.9705 30.1316C30.206 33.2216 31.1969 37.1556 34.1723 39.0251L34.357 39.1369C35.1951 39.6262 36.0961 39.906 37.0005 39.9922L37.0008 40.1465L26.2149 40.1463L26.2106 40.1559L8.3466 40.1564C10.3271 39.9487 12.1863 38.8463 13.3067 37.0235L13.4327 36.81L26.6452 13.4585C27.3946 12.4792 28.5477 11.8318 29.8524 11.7715L29.8061 11.7748Z" fill="#0CC19B" fill-opacity="0.5"/>
<path fill-rule="evenodd" clip-rule="evenodd" d="M29.8061 11.7748L42.3689 11.7878L40.5516 14.9785L34.0066 26.4643L34.0103 26.4632H34.0636L31.9705 30.1316C30.206 33.2216 31.1969 37.1556 34.1723 39.0251L34.357 39.1369C35.1951 39.6262 36.0961 39.906 37.0005 39.9922L37.0008 40.1465L26.2149 40.1463L26.2106 40.1559L8.3466 40.1564C10.3271 39.9487 12.1863 38.8463 13.3067 37.0235L13.4327 36.81L26.6452 13.4585C27.3946 12.4792 28.5477 11.8318 29.8524 11.7715L29.8061 11.7748Z" fill="#003CB2"/>
</g>
<defs>
<clipPath id="clip0">
<rect width="56.589" height="41.4612" fill="white" transform="translate(0.150681)"/>
</clipPath>
</defs>
</svg>
